<mxfile host="app.diagrams.net" agent="Mozilla/5.0 (Windows NT 10.0; Win64; x64) AppleWebKit/537.36 (KHTML, like Gecko) Chrome/131.0.0.0 Safari/537.36" version="24.8.6">
  <diagram name="Page-1" id="ByaQ5v18NxfIfmB4YeT4">
    <mxGraphModel dx="2109" dy="686" grid="1" gridSize="10" guides="1" tooltips="1" connect="1" arrows="1" fold="1" page="1" pageScale="1" pageWidth="850" pageHeight="1100" math="0" shadow="0">
      <root>
        <mxCell id="0" />
        <mxCell id="1" parent="0" />
        <mxCell id="8Cqf3qaHtefPqFxRct_U-1" value="" style="rounded=1;whiteSpace=wrap;html=1;fillColor=#f5f5f5;fontColor=#333333;strokeColor=#666666;" vertex="1" parent="1">
          <mxGeometry x="-110" y="40" width="940" height="520" as="geometry" />
        </mxCell>
        <mxCell id="8Cqf3qaHtefPqFxRct_U-4" style="edgeStyle=orthogonalEdgeStyle;rounded=0;orthogonalLoop=1;jettySize=auto;html=1;entryX=0;entryY=0.5;entryDx=0;entryDy=0;flowAnimation=1;" edge="1" parent="1" source="8Cqf3qaHtefPqFxRct_U-2" target="8Cqf3qaHtefPqFxRct_U-3">
          <mxGeometry relative="1" as="geometry" />
        </mxCell>
        <mxCell id="8Cqf3qaHtefPqFxRct_U-2" value="&lt;b&gt;&lt;font color=&quot;#0000cc&quot; style=&quot;font-size: 14px;&quot; face=&quot;Comic Sans MS&quot;&gt;00-VPC&lt;/font&gt;&lt;/b&gt;" style="rounded=0;whiteSpace=wrap;html=1;fillColor=#dae8fc;strokeColor=#6c8ebf;" vertex="1" parent="1">
          <mxGeometry x="-80" y="295" width="120" height="60" as="geometry" />
        </mxCell>
        <mxCell id="8Cqf3qaHtefPqFxRct_U-9" style="edgeStyle=orthogonalEdgeStyle;rounded=0;orthogonalLoop=1;jettySize=auto;html=1;entryX=0;entryY=0.5;entryDx=0;entryDy=0;flowAnimation=1;" edge="1" parent="1" source="8Cqf3qaHtefPqFxRct_U-3" target="8Cqf3qaHtefPqFxRct_U-5">
          <mxGeometry relative="1" as="geometry" />
        </mxCell>
        <mxCell id="8Cqf3qaHtefPqFxRct_U-10" style="edgeStyle=orthogonalEdgeStyle;rounded=0;orthogonalLoop=1;jettySize=auto;html=1;entryX=0;entryY=0.5;entryDx=0;entryDy=0;flowAnimation=1;" edge="1" parent="1" source="8Cqf3qaHtefPqFxRct_U-3" target="8Cqf3qaHtefPqFxRct_U-6">
          <mxGeometry relative="1" as="geometry" />
        </mxCell>
        <mxCell id="8Cqf3qaHtefPqFxRct_U-11" style="edgeStyle=orthogonalEdgeStyle;rounded=0;orthogonalLoop=1;jettySize=auto;html=1;flowAnimation=1;" edge="1" parent="1" source="8Cqf3qaHtefPqFxRct_U-3" target="8Cqf3qaHtefPqFxRct_U-7">
          <mxGeometry relative="1" as="geometry" />
        </mxCell>
        <mxCell id="8Cqf3qaHtefPqFxRct_U-12" style="edgeStyle=orthogonalEdgeStyle;rounded=0;orthogonalLoop=1;jettySize=auto;html=1;entryX=0;entryY=0.5;entryDx=0;entryDy=0;flowAnimation=1;" edge="1" parent="1" source="8Cqf3qaHtefPqFxRct_U-3" target="8Cqf3qaHtefPqFxRct_U-8">
          <mxGeometry relative="1" as="geometry" />
        </mxCell>
        <mxCell id="8Cqf3qaHtefPqFxRct_U-3" value="&lt;b&gt;&lt;font color=&quot;#0000cc&quot; style=&quot;font-size: 14px;&quot; face=&quot;Comic Sans MS&quot;&gt;10-SG&lt;/font&gt;&lt;/b&gt;" style="rounded=0;whiteSpace=wrap;html=1;fillColor=#d5e8d4;strokeColor=#82b366;" vertex="1" parent="1">
          <mxGeometry x="120" y="295" width="120" height="60" as="geometry" />
        </mxCell>
        <mxCell id="8Cqf3qaHtefPqFxRct_U-5" value="&lt;b&gt;&lt;font color=&quot;#0000cc&quot; style=&quot;font-size: 14px;&quot; face=&quot;Comic Sans MS&quot;&gt;20-bastion&lt;/font&gt;&lt;/b&gt;" style="rounded=0;whiteSpace=wrap;html=1;fillColor=#ffe6cc;strokeColor=#d79b00;" vertex="1" parent="1">
          <mxGeometry x="360" y="110" width="120" height="60" as="geometry" />
        </mxCell>
        <mxCell id="8Cqf3qaHtefPqFxRct_U-6" value="&lt;b&gt;&lt;font color=&quot;#0000cc&quot; style=&quot;font-size: 14px;&quot; face=&quot;Comic Sans MS&quot;&gt;30-rds&lt;/font&gt;&lt;/b&gt;" style="rounded=0;whiteSpace=wrap;html=1;fillColor=#f8cecc;strokeColor=#b85450;" vertex="1" parent="1">
          <mxGeometry x="360" y="200" width="120" height="60" as="geometry" />
        </mxCell>
        <mxCell id="8Cqf3qaHtefPqFxRct_U-14" style="edgeStyle=orthogonalEdgeStyle;rounded=0;orthogonalLoop=1;jettySize=auto;html=1;flowAnimation=1;" edge="1" parent="1" source="8Cqf3qaHtefPqFxRct_U-7" target="8Cqf3qaHtefPqFxRct_U-13">
          <mxGeometry relative="1" as="geometry" />
        </mxCell>
        <mxCell id="8Cqf3qaHtefPqFxRct_U-7" value="&lt;b&gt;&lt;font color=&quot;#0000cc&quot; style=&quot;font-size: 14px;&quot; face=&quot;Comic Sans MS&quot;&gt;40-eks&lt;/font&gt;&lt;/b&gt;" style="rounded=0;whiteSpace=wrap;html=1;fillColor=#e1d5e7;strokeColor=#9673a6;" vertex="1" parent="1">
          <mxGeometry x="360" y="295" width="120" height="60" as="geometry" />
        </mxCell>
        <mxCell id="8Cqf3qaHtefPqFxRct_U-8" value="&lt;b&gt;&lt;font color=&quot;#0000cc&quot; style=&quot;font-size: 14px;&quot; face=&quot;Comic Sans MS&quot;&gt;70-ECR&lt;/font&gt;&lt;/b&gt;" style="rounded=0;whiteSpace=wrap;html=1;fillColor=#f8cecc;strokeColor=#b85450;" vertex="1" parent="1">
          <mxGeometry x="360" y="390" width="120" height="60" as="geometry" />
        </mxCell>
        <mxCell id="8Cqf3qaHtefPqFxRct_U-17" style="edgeStyle=orthogonalEdgeStyle;rounded=0;orthogonalLoop=1;jettySize=auto;html=1;entryX=0;entryY=0.5;entryDx=0;entryDy=0;flowAnimation=1;" edge="1" parent="1" source="8Cqf3qaHtefPqFxRct_U-13" target="8Cqf3qaHtefPqFxRct_U-15">
          <mxGeometry relative="1" as="geometry" />
        </mxCell>
        <mxCell id="8Cqf3qaHtefPqFxRct_U-18" style="edgeStyle=orthogonalEdgeStyle;rounded=0;orthogonalLoop=1;jettySize=auto;html=1;entryX=0;entryY=0.5;entryDx=0;entryDy=0;flowAnimation=1;" edge="1" parent="1" source="8Cqf3qaHtefPqFxRct_U-13" target="8Cqf3qaHtefPqFxRct_U-16">
          <mxGeometry relative="1" as="geometry" />
        </mxCell>
        <mxCell id="8Cqf3qaHtefPqFxRct_U-13" value="&lt;b&gt;&lt;font color=&quot;#0000cc&quot; style=&quot;font-size: 14px;&quot; face=&quot;Comic Sans MS&quot;&gt;50-acm&lt;/font&gt;&lt;/b&gt;" style="rounded=0;whiteSpace=wrap;html=1;fillColor=#fff2cc;strokeColor=#d6b656;" vertex="1" parent="1">
          <mxGeometry x="520" y="295" width="120" height="60" as="geometry" />
        </mxCell>
        <mxCell id="8Cqf3qaHtefPqFxRct_U-15" value="&lt;b&gt;&lt;font color=&quot;#0000cc&quot; style=&quot;font-size: 14px;&quot; face=&quot;Comic Sans MS&quot;&gt;60-alb&lt;/font&gt;&lt;/b&gt;" style="rounded=0;whiteSpace=wrap;html=1;fillColor=#fff2cc;strokeColor=#d6b656;" vertex="1" parent="1">
          <mxGeometry x="680" y="200" width="120" height="60" as="geometry" />
        </mxCell>
        <mxCell id="8Cqf3qaHtefPqFxRct_U-16" value="&lt;b&gt;&lt;font color=&quot;#0000cc&quot; style=&quot;font-size: 14px;&quot; face=&quot;Comic Sans MS&quot;&gt;80-cdn&lt;/font&gt;&lt;/b&gt;" style="rounded=0;whiteSpace=wrap;html=1;fillColor=#fff2cc;strokeColor=#d6b656;" vertex="1" parent="1">
          <mxGeometry x="680" y="390" width="120" height="60" as="geometry" />
        </mxCell>
        <mxCell id="8Cqf3qaHtefPqFxRct_U-19" value="&lt;b&gt;&lt;font style=&quot;font-size: 14px;&quot; face=&quot;Comic Sans MS&quot;&gt;expense-infra apply&lt;/font&gt;&lt;/b&gt;" style="text;html=1;align=center;verticalAlign=middle;resizable=0;points=[];autosize=1;strokeColor=none;fillColor=none;" vertex="1" parent="1">
          <mxGeometry x="265" y="50" width="160" height="30" as="geometry" />
        </mxCell>
      </root>
    </mxGraphModel>
  </diagram>
</mxfile>
